<svg xmlns="http://www.w3.org/2000/svg" xmlns:xlink="http://www.w3.org/1999/xlink" width="16" height="16" viewBox="0 0 16 16">
  <defs>
    <clipPath id="clip-path">
      <rect id="Rettangolo_9371" data-name="Rettangolo 9371" width="16" height="16" fill="none"/>
    </clipPath>
  </defs>
  <g id="Raggruppa_8" data-name="Raggruppa 8" transform="translate(-588.537 -203.117)">
    <g id="Raggruppa_5282" data-name="Raggruppa 5282" transform="translate(588.537 203.117)" clip-path="url(#clip-path)">
      <g id="Raggruppa_5281" data-name="Raggruppa 5281" transform="translate(0 0)">
        <path id="Tracciato_2301" data-name="Tracciato 2301" d="M633.81,219.117H619.264a.727.727,0,1,1,0-1.455H633.81a.727.727,0,1,1,0,1.455Zm-7.273-3.218a.725.725,0,0,1-.514-.213l-3.572-3.572a.727.727,0,0,1,1.029-1.029l2.33,2.33v-9.571a.727.727,0,0,1,1.455,0v9.571l2.33-2.33a.727.727,0,0,1,1.029,1.029l-3.572,3.572a.725.725,0,0,1-.514.213Z" transform="translate(-618.537 -203.117)" fill="#f79433"/>
      </g>
    </g>
  </g>
</svg>
