<svg id="filter_icon" xmlns="http://www.w3.org/2000/svg" xmlns:xlink="http://www.w3.org/1999/xlink" width="16" height="16" viewBox="0 0 16 16">
  <defs>
    <clipPath id="clip-path">
      <rect id="Rettangolo_8370" data-name="Rettangolo 8370" width="16" height="16" fill="none"/>
    </clipPath>
  </defs>
  <g id="Raggruppa_4214" data-name="Raggruppa 4214" clip-path="url(#clip-path)">
    <path id="Tracciato_968" data-name="Tracciato 968" d="M8.807,17.452A1.875,1.875,0,0,1,7.02,16.145H4.548a.556.556,0,0,1,0-1.109H7.02a1.878,1.878,0,0,1,3.575,0h8.756a.556.556,0,0,1,0,1.109H10.595a1.875,1.875,0,0,1-1.787,1.306m0-2.609a.75.75,0,1,0,.763.75.75.75,0,0,0-.763-.75m6.284-3.488A1.875,1.875,0,0,1,13.3,10.049H4.548a.556.556,0,0,1,0-1.109H13.3a1.878,1.878,0,0,1,3.575,0h2.472a.556.556,0,0,1,0,1.109H16.882a1.875,1.875,0,0,1-1.788,1.306m0-2.609a.75.75,0,1,0,.763.75.75.75,0,0,0-.763-.75M8.807,5.258a1.875,1.875,0,0,1-1.788-1.3H4.548a.556.556,0,0,1,0-1.109H7.02a1.878,1.878,0,0,1,3.575,0h8.756a.556.556,0,0,1,0,1.109H10.595A1.875,1.875,0,0,1,8.807,5.261m0-2.609a.75.75,0,1,0,.763.75.75.75,0,0,0-.763-.75" transform="translate(-3.907 -1.495)" fill="#fff"/>
  </g>
</svg>
