<svg xmlns="http://www.w3.org/2000/svg" xmlns:xlink="http://www.w3.org/1999/xlink" width="12" height="12" viewBox="0 0 12 12">
  <defs>
    <clipPath id="clip-path">
      <rect id="Rettangolo_9394" data-name="Rettangolo 9394" width="12" height="12" fill="#373740" stroke="rgba(0,0,0,0)" stroke-width="1"/>
    </clipPath>
  </defs>
  <g id="Raggruppa_5330" data-name="Raggruppa 5330" transform="translate(10128.106 1007.377)" opacity="0.4">
    <g id="Raggruppa_5319" data-name="Raggruppa 5319" transform="translate(-10128.106 -1007.377)" clip-path="url(#clip-path)">
      <g id="Raggruppa_5318" data-name="Raggruppa 5318" transform="translate(2.656 0)">
        <path id="Tracciato_2308" data-name="Tracciato 2308" d="M-10014.1-995.377a.669.669,0,0,1-.476-.2.673.673,0,0,1,0-.95l4.867-4.867-4.866-4.838a.673.673,0,0,1,0-.95.672.672,0,0,1,.95,0l5.343,5.312,0,0,.015.015h0a.681.681,0,0,1,.116.173h0a.665.665,0,0,1,.057.206h0a.679.679,0,0,1-.081.4h0a.645.645,0,0,1-.1.131h0l-.008.007,0,0-5.343,5.343A.672.672,0,0,1-10014.1-995.377Z" transform="translate(10014.771 1007.377)" fill="#373740" stroke="rgba(0,0,0,0)" stroke-width="1"/>
      </g>
    </g>
  </g>
</svg>
